<mxfile host="app.diagrams.net" modified="2022-02-17T15:54:28.378Z" agent="5.0 (X11; Linux x86_64) AppleWebKit/537.36 (KHTML, like Gecko) Chrome/97.0.4692.71 Safari/537.36" etag="PeWdka8vybI5tR9tBpAF" version="16.5.6" type="github">
  <diagram id="WXnUgs4JJ4X1YGe4O1uY" name="Page-1">
    <mxGraphModel dx="3424" dy="1392" grid="1" gridSize="10" guides="1" tooltips="1" connect="1" arrows="1" fold="1" page="1" pageScale="1" pageWidth="850" pageHeight="1100" math="0" shadow="0">
      <root>
        <mxCell id="0" />
        <mxCell id="1" parent="0" />
        <mxCell id="dzhNXSrbuq9fd1vKyZxA-10" value="cron /10 min" style="shape=note;whiteSpace=wrap;html=1;backgroundOutline=1;darkOpacity=0.05;fontSize=18;size=22;fillColor=#fff2cc;strokeColor=#d6b656;" vertex="1" parent="1">
          <mxGeometry x="514" y="270" width="150" height="32" as="geometry" />
        </mxCell>
        <mxCell id="dzhNXSrbuq9fd1vKyZxA-4" value="" style="group" vertex="1" connectable="0" parent="1">
          <mxGeometry x="260" y="288" width="180" height="102" as="geometry" />
        </mxCell>
        <mxCell id="dzhNXSrbuq9fd1vKyZxA-1" value="" style="outlineConnect=0;dashed=0;verticalLabelPosition=bottom;verticalAlign=top;align=center;html=1;shape=mxgraph.aws3.lambda_function;fillColor=#F58534;gradientColor=none;" vertex="1" parent="dzhNXSrbuq9fd1vKyZxA-4">
          <mxGeometry x="40" width="69" height="72" as="geometry" />
        </mxCell>
        <mxCell id="dzhNXSrbuq9fd1vKyZxA-2" value="&lt;p&gt;&lt;font style=&quot;font-size: 18px&quot;&gt;&lt;b&gt;get-salesforce-token&lt;/b&gt;&lt;/font&gt;&lt;/p&gt;" style="text;html=1;strokeColor=none;fillColor=none;align=center;verticalAlign=middle;whiteSpace=wrap;rounded=0;" vertex="1" parent="dzhNXSrbuq9fd1vKyZxA-4">
          <mxGeometry y="72" width="180" height="30" as="geometry" />
        </mxCell>
        <mxCell id="dzhNXSrbuq9fd1vKyZxA-7" value="" style="endArrow=classic;html=1;rounded=0;fontSize=18;entryX=-0.029;entryY=0.403;entryDx=0;entryDy=0;entryPerimeter=0;" edge="1" parent="1" source="dzhNXSrbuq9fd1vKyZxA-2" target="dzhNXSrbuq9fd1vKyZxA-5">
          <mxGeometry width="50" height="50" relative="1" as="geometry">
            <mxPoint x="400" y="680" as="sourcePoint" />
            <mxPoint x="450" y="630" as="targetPoint" />
          </mxGeometry>
        </mxCell>
        <mxCell id="dzhNXSrbuq9fd1vKyZxA-8" value="" style="sketch=0;points=[[0,0,0],[0.25,0,0],[0.5,0,0],[0.75,0,0],[1,0,0],[0,1,0],[0.25,1,0],[0.5,1,0],[0.75,1,0],[1,1,0],[0,0.25,0],[0,0.5,0],[0,0.75,0],[1,0.25,0],[1,0.5,0],[1,0.75,0]];outlineConnect=0;fontColor=#232F3E;gradientColor=#FF4F8B;gradientDirection=north;fillColor=#BC1356;strokeColor=#ffffff;dashed=0;verticalLabelPosition=bottom;verticalAlign=top;align=center;html=1;fontSize=12;fontStyle=0;aspect=fixed;shape=mxgraph.aws4.resourceIcon;resIcon=mxgraph.aws4.eventbridge;" vertex="1" parent="1">
          <mxGeometry x="550" y="180" width="78" height="78" as="geometry" />
        </mxCell>
        <mxCell id="dzhNXSrbuq9fd1vKyZxA-9" value="" style="endArrow=classic;html=1;rounded=0;fontSize=18;entryX=0.855;entryY=0.145;entryDx=0;entryDy=0;entryPerimeter=0;exitX=0;exitY=0.5;exitDx=0;exitDy=0;exitPerimeter=0;" edge="1" parent="1" source="dzhNXSrbuq9fd1vKyZxA-8" target="dzhNXSrbuq9fd1vKyZxA-1">
          <mxGeometry width="50" height="50" relative="1" as="geometry">
            <mxPoint x="400" y="640" as="sourcePoint" />
            <mxPoint x="450" y="590" as="targetPoint" />
          </mxGeometry>
        </mxCell>
        <mxCell id="dzhNXSrbuq9fd1vKyZxA-13" value="" style="endArrow=classic;html=1;rounded=0;fontSize=18;exitX=0.99;exitY=0.06;exitDx=0;exitDy=0;exitPerimeter=0;entryX=0.013;entryY=0.703;entryDx=0;entryDy=0;entryPerimeter=0;" edge="1" parent="1" source="dzhNXSrbuq9fd1vKyZxA-11" target="dzhNXSrbuq9fd1vKyZxA-5">
          <mxGeometry width="50" height="50" relative="1" as="geometry">
            <mxPoint x="400" y="630" as="sourcePoint" />
            <mxPoint x="450" y="580" as="targetPoint" />
          </mxGeometry>
        </mxCell>
        <mxCell id="dzhNXSrbuq9fd1vKyZxA-14" value="" style="group" vertex="1" connectable="0" parent="1">
          <mxGeometry x="21.439999999999998" y="590" width="171.62" height="104.5" as="geometry" />
        </mxCell>
        <mxCell id="dzhNXSrbuq9fd1vKyZxA-11" value="" style="outlineConnect=0;dashed=0;verticalLabelPosition=bottom;verticalAlign=top;align=center;html=1;shape=mxgraph.aws3.application;fillColor=#F58534;gradientColor=none;fontSize=18;" vertex="1" parent="dzhNXSrbuq9fd1vKyZxA-14">
          <mxGeometry x="68.56" width="34.5" height="64.5" as="geometry" />
        </mxCell>
        <mxCell id="dzhNXSrbuq9fd1vKyZxA-12" value="&lt;span style=&quot;color: rgb(0 , 0 , 0) ; font-family: &amp;#34;helvetica&amp;#34; ; font-size: 18px ; font-style: normal ; letter-spacing: normal ; text-align: center ; text-indent: 0px ; text-transform: none ; word-spacing: 0px ; background-color: rgb(248 , 249 , 250) ; display: inline ; float: none&quot;&gt;&lt;b&gt;notification-service&lt;/b&gt;&lt;/span&gt;" style="text;whiteSpace=wrap;html=1;fontSize=18;" vertex="1" parent="dzhNXSrbuq9fd1vKyZxA-14">
          <mxGeometry y="64.5" width="171.62" height="40" as="geometry" />
        </mxCell>
        <mxCell id="dzhNXSrbuq9fd1vKyZxA-16" value="" style="sketch=0;aspect=fixed;html=1;points=[];align=center;image;fontSize=12;image=img/lib/mscae/Software_as_a_Service.svg;" vertex="1" parent="1">
          <mxGeometry x="650" y="606.25" width="93.75" height="93.75" as="geometry" />
        </mxCell>
        <mxCell id="dzhNXSrbuq9fd1vKyZxA-18" value="&lt;div&gt;Salesforce&lt;/div&gt;" style="text;html=1;strokeColor=none;fillColor=none;align=center;verticalAlign=middle;whiteSpace=wrap;rounded=0;fontSize=18;" vertex="1" parent="1">
          <mxGeometry x="636.88" y="720" width="120" height="30" as="geometry" />
        </mxCell>
        <mxCell id="dzhNXSrbuq9fd1vKyZxA-19" value="" style="group" vertex="1" connectable="0" parent="1">
          <mxGeometry x="-50" y="850" width="310" height="107.37" as="geometry" />
        </mxCell>
        <mxCell id="dzhNXSrbuq9fd1vKyZxA-15" value="" style="outlineConnect=0;dashed=0;verticalLabelPosition=bottom;verticalAlign=top;align=center;html=1;shape=mxgraph.aws3.lambda_function;fillColor=#F58534;gradientColor=none;fontSize=18;" vertex="1" parent="dzhNXSrbuq9fd1vKyZxA-19">
          <mxGeometry x="120.5" width="69" height="72" as="geometry" />
        </mxCell>
        <mxCell id="dzhNXSrbuq9fd1vKyZxA-17" value="&lt;div&gt;&lt;b&gt;&lt;br&gt;&lt;/b&gt;&lt;/div&gt;&lt;div&gt;&lt;b&gt;clevertap-salesforce-sms&lt;/b&gt;&lt;/div&gt;&lt;div&gt;&lt;br&gt;&lt;/div&gt;" style="text;html=1;strokeColor=none;fillColor=none;align=center;verticalAlign=middle;whiteSpace=wrap;rounded=0;fontSize=18;" vertex="1" parent="dzhNXSrbuq9fd1vKyZxA-19">
          <mxGeometry y="77.37" width="310" height="30" as="geometry" />
        </mxCell>
        <mxCell id="dzhNXSrbuq9fd1vKyZxA-20" value="" style="endArrow=classic;html=1;rounded=0;fontSize=18;exitX=0.855;exitY=0.145;exitDx=0;exitDy=0;exitPerimeter=0;entryX=0.21;entryY=0.875;entryDx=0;entryDy=0;entryPerimeter=0;" edge="1" parent="1" source="dzhNXSrbuq9fd1vKyZxA-15" target="dzhNXSrbuq9fd1vKyZxA-5">
          <mxGeometry width="50" height="50" relative="1" as="geometry">
            <mxPoint x="400" y="510" as="sourcePoint" />
            <mxPoint x="450" y="460" as="targetPoint" />
          </mxGeometry>
        </mxCell>
        <mxCell id="dzhNXSrbuq9fd1vKyZxA-22" value="" style="aspect=fixed;perimeter=ellipsePerimeter;html=1;align=center;shadow=0;dashed=0;fontColor=#4277BB;labelBackgroundColor=#ffffff;fontSize=12;spacingTop=3;image;image=img/lib/ibm/applications/saas_applications.svg;" vertex="1" parent="1">
          <mxGeometry x="651.88" y="820" width="90" height="90" as="geometry" />
        </mxCell>
        <mxCell id="dzhNXSrbuq9fd1vKyZxA-23" value="" style="group" vertex="1" connectable="0" parent="1">
          <mxGeometry x="609.13" y="840" width="175.5" height="102" as="geometry" />
        </mxCell>
        <mxCell id="dzhNXSrbuq9fd1vKyZxA-25" value="&lt;p&gt;&lt;font style=&quot;font-size: 18px&quot;&gt;CleverTap&lt;/font&gt;&lt;/p&gt;" style="text;html=1;strokeColor=none;fillColor=none;align=center;verticalAlign=middle;whiteSpace=wrap;rounded=0;" vertex="1" parent="dzhNXSrbuq9fd1vKyZxA-23">
          <mxGeometry y="72" width="175.5" height="30" as="geometry" />
        </mxCell>
        <mxCell id="dzhNXSrbuq9fd1vKyZxA-26" value="" style="endArrow=classic;html=1;rounded=0;fontSize=18;exitX=0.01;exitY=0.616;exitDx=0;exitDy=0;exitPerimeter=0;startArrow=none;" edge="1" parent="1" source="dzhNXSrbuq9fd1vKyZxA-42" target="dzhNXSrbuq9fd1vKyZxA-15">
          <mxGeometry width="50" height="50" relative="1" as="geometry">
            <mxPoint x="400" y="500" as="sourcePoint" />
            <mxPoint x="450" y="450" as="targetPoint" />
          </mxGeometry>
        </mxCell>
        <mxCell id="dzhNXSrbuq9fd1vKyZxA-28" value="" style="endArrow=classic;html=1;rounded=0;fontSize=18;entryX=-0.03;entryY=0.883;entryDx=0;entryDy=0;entryPerimeter=0;" edge="1" parent="1" source="dzhNXSrbuq9fd1vKyZxA-15" target="dzhNXSrbuq9fd1vKyZxA-16">
          <mxGeometry width="50" height="50" relative="1" as="geometry">
            <mxPoint x="140" y="870" as="sourcePoint" />
            <mxPoint x="450" y="450" as="targetPoint" />
          </mxGeometry>
        </mxCell>
        <mxCell id="dzhNXSrbuq9fd1vKyZxA-29" value="Marketing" style="shape=note;whiteSpace=wrap;html=1;backgroundOutline=1;darkOpacity=0.05;fontSize=18;size=0;fillColor=#fff2cc;strokeColor=#d6b656;" vertex="1" parent="1">
          <mxGeometry x="800" y="815" width="100" height="100" as="geometry" />
        </mxCell>
        <mxCell id="dzhNXSrbuq9fd1vKyZxA-30" value="" style="endArrow=classic;html=1;rounded=0;fontSize=18;exitX=0.008;exitY=0.604;exitDx=0;exitDy=0;exitPerimeter=0;entryX=1;entryY=0.5;entryDx=0;entryDy=0;" edge="1" parent="1" source="dzhNXSrbuq9fd1vKyZxA-29" target="dzhNXSrbuq9fd1vKyZxA-22">
          <mxGeometry width="50" height="50" relative="1" as="geometry">
            <mxPoint x="400" y="470" as="sourcePoint" />
            <mxPoint x="730" y="780" as="targetPoint" />
          </mxGeometry>
        </mxCell>
        <mxCell id="dzhNXSrbuq9fd1vKyZxA-32" value="" style="group" vertex="1" connectable="0" parent="1">
          <mxGeometry x="617.62" y="420" width="100" height="130" as="geometry" />
        </mxCell>
        <mxCell id="dzhNXSrbuq9fd1vKyZxA-5" value="" style="sketch=0;aspect=fixed;html=1;points=[];align=center;image;fontSize=12;image=img/lib/mscae/Cache_Redis_Product.svg;" vertex="1" parent="dzhNXSrbuq9fd1vKyZxA-32">
          <mxGeometry x="2.3799999999999955" width="95.24" height="80" as="geometry" />
        </mxCell>
        <mxCell id="dzhNXSrbuq9fd1vKyZxA-31" value="&lt;font style=&quot;font-size: 20px&quot;&gt;token&lt;/font&gt;&lt;br&gt;&lt;font style=&quot;font-size: 14px&quot;&gt;TTL 15 min&lt;/font&gt;" style="shape=note;whiteSpace=wrap;html=1;backgroundOutline=1;darkOpacity=0.05;fontSize=18;size=0;fillColor=#fff2cc;strokeColor=#d6b656;" vertex="1" parent="dzhNXSrbuq9fd1vKyZxA-32">
          <mxGeometry y="90" width="100" height="40" as="geometry" />
        </mxCell>
        <mxCell id="dzhNXSrbuq9fd1vKyZxA-33" value="" style="endArrow=classic;html=1;rounded=0;fontSize=18;exitX=0.275;exitY=0.5;exitDx=0;exitDy=0;exitPerimeter=0;" edge="1" parent="1" source="dzhNXSrbuq9fd1vKyZxA-11">
          <mxGeometry width="50" height="50" relative="1" as="geometry">
            <mxPoint x="400" y="470" as="sourcePoint" />
            <mxPoint x="640" y="650" as="targetPoint" />
          </mxGeometry>
        </mxCell>
        <mxCell id="dzhNXSrbuq9fd1vKyZxA-35" value="" style="sketch=0;points=[[0,0,0],[0.25,0,0],[0.5,0,0],[0.75,0,0],[1,0,0],[0,1,0],[0.25,1,0],[0.5,1,0],[0.75,1,0],[1,1,0],[0,0.25,0],[0,0.5,0],[0,0.75,0],[1,0.25,0],[1,0.5,0],[1,0.75,0]];outlineConnect=0;fontColor=#232F3E;gradientColor=#945DF2;gradientDirection=north;fillColor=#5A30B5;strokeColor=#ffffff;dashed=0;verticalLabelPosition=bottom;verticalAlign=top;align=center;html=1;fontSize=12;fontStyle=0;aspect=fixed;shape=mxgraph.aws4.resourceIcon;resIcon=mxgraph.aws4.managed_streaming_for_kafka;" vertex="1" parent="1">
          <mxGeometry x="21.439999999999998" y="360" width="78" height="78" as="geometry" />
        </mxCell>
        <mxCell id="dzhNXSrbuq9fd1vKyZxA-36" value="" style="endArrow=classic;html=1;rounded=0;fontSize=18;exitX=1;exitY=0;exitDx=0;exitDy=0;entryX=0.14;entryY=0.19;entryDx=0;entryDy=0;entryPerimeter=0;" edge="1" parent="1" source="dzhNXSrbuq9fd1vKyZxA-39" target="dzhNXSrbuq9fd1vKyZxA-11">
          <mxGeometry width="50" height="50" relative="1" as="geometry">
            <mxPoint x="400" y="470" as="sourcePoint" />
            <mxPoint x="450" y="420" as="targetPoint" />
          </mxGeometry>
        </mxCell>
        <mxCell id="dzhNXSrbuq9fd1vKyZxA-37" value="Services" style="shape=note;whiteSpace=wrap;html=1;backgroundOutline=1;darkOpacity=0.05;fontSize=18;size=0;fillColor=#fff2cc;strokeColor=#d6b656;" vertex="1" parent="1">
          <mxGeometry x="30" y="130" width="100" height="100" as="geometry" />
        </mxCell>
        <mxCell id="dzhNXSrbuq9fd1vKyZxA-38" value="" style="endArrow=classic;html=1;rounded=0;fontSize=18;exitX=0.412;exitY=1.054;exitDx=0;exitDy=0;exitPerimeter=0;entryX=0.5;entryY=0;entryDx=0;entryDy=0;entryPerimeter=0;" edge="1" parent="1" source="dzhNXSrbuq9fd1vKyZxA-37" target="dzhNXSrbuq9fd1vKyZxA-35">
          <mxGeometry width="50" height="50" relative="1" as="geometry">
            <mxPoint x="400" y="470" as="sourcePoint" />
            <mxPoint x="450" y="420" as="targetPoint" />
          </mxGeometry>
        </mxCell>
        <mxCell id="dzhNXSrbuq9fd1vKyZxA-39" value="&lt;p&gt;&lt;font style=&quot;font-size: 18px&quot;&gt;&lt;b&gt;Kafka&lt;/b&gt;&lt;/font&gt;&lt;/p&gt;" style="text;html=1;strokeColor=none;fillColor=none;align=center;verticalAlign=middle;whiteSpace=wrap;rounded=0;" vertex="1" parent="1">
          <mxGeometry x="21.440000000000005" y="438" width="59.56" height="30" as="geometry" />
        </mxCell>
        <mxCell id="dzhNXSrbuq9fd1vKyZxA-40" value="&lt;h1&gt;SMS&lt;/h1&gt;" style="text;html=1;strokeColor=none;fillColor=none;spacing=5;spacingTop=-20;whiteSpace=wrap;overflow=hidden;rounded=0;fontSize=18;" vertex="1" parent="1">
          <mxGeometry x="211" y="20" width="90" height="70" as="geometry" />
        </mxCell>
        <UserObject label="@marco.antonio&lt;br&gt;17/02/2022" placeholders="1" id="dzhNXSrbuq9fd1vKyZxA-41">
          <mxCell style="text;html=1;strokeColor=none;fillColor=none;align=center;verticalAlign=middle;whiteSpace=wrap;overflow=hidden;fontSize=18;" vertex="1" parent="1">
            <mxGeometry x="320" y="17.5" width="160" height="75" as="geometry" />
          </mxCell>
        </UserObject>
        <mxCell id="dzhNXSrbuq9fd1vKyZxA-42" value="" style="outlineConnect=0;dashed=0;verticalLabelPosition=bottom;verticalAlign=top;align=center;html=1;shape=mxgraph.aws3.api_gateway;fillColor=#D9A741;gradientColor=none;fontSize=20;" vertex="1" parent="1">
          <mxGeometry x="243.5" y="844.5" width="76.5" height="93" as="geometry" />
        </mxCell>
        <mxCell id="dzhNXSrbuq9fd1vKyZxA-43" value="" style="endArrow=none;html=1;rounded=0;fontSize=18;exitX=0.01;exitY=0.616;exitDx=0;exitDy=0;exitPerimeter=0;" edge="1" parent="1" source="dzhNXSrbuq9fd1vKyZxA-22" target="dzhNXSrbuq9fd1vKyZxA-42">
          <mxGeometry width="50" height="50" relative="1" as="geometry">
            <mxPoint x="652.7800000000002" y="875.44" as="sourcePoint" />
            <mxPoint x="410" y="891" as="targetPoint" />
          </mxGeometry>
        </mxCell>
      </root>
    </mxGraphModel>
  </diagram>
</mxfile>
